<svg width="16" height="16" viewBox="0 0 16 16" fill="none" xmlns="http://www.w3.org/2000/svg">
<path d="M10.0734 10.4563C10.0619 10.4402 10.0466 10.4271 10.0289 10.4181C10.0113 10.4091 9.9917 10.4045 9.97188 10.4047H9.28125C9.17969 10.4047 9.12031 10.5203 9.17969 10.6031L10.3328 12.1984C10.3828 12.2672 10.4844 12.2672 10.5344 12.1984L12.3188 9.72969C12.3781 9.64688 12.3188 9.53125 12.2172 9.53125H11.525C11.4844 9.53125 11.4469 9.55 11.4234 9.58281L10.4312 10.9547L10.0734 10.4563ZM10.75 4.78125V4.03125C10.75 3.9625 10.6938 3.90625 10.625 3.90625H4.625C4.55625 3.90625 4.5 3.9625 4.5 4.03125V4.78125C4.5 4.85 4.55625 4.90625 4.625 4.90625H10.625C10.6938 4.90625 10.75 4.85 10.75 4.78125ZM4.625 6.15625C4.55625 6.15625 4.5 6.2125 4.5 6.28125V7.03125C4.5 7.1 4.55625 7.15625 4.625 7.15625H7.5C7.56875 7.15625 7.625 7.1 7.625 7.03125V6.28125C7.625 6.2125 7.56875 6.15625 7.5 6.15625H4.625ZM7.5 13.3125H3.25V2.3125H12V6.9375C12 7.00625 12.0562 7.0625 12.125 7.0625H13C13.0688 7.0625 13.125 7.00625 13.125 6.9375V1.6875C13.125 1.41094 12.9016 1.1875 12.625 1.1875H2.625C2.34844 1.1875 2.125 1.41094 2.125 1.6875V13.9375C2.125 14.2141 2.34844 14.4375 2.625 14.4375H7.5C7.56875 14.4375 7.625 14.3813 7.625 14.3125V13.4375C7.625 13.3687 7.56875 13.3125 7.5 13.3125ZM13.7906 8.3L10.7906 7.25781C10.7766 7.25313 10.7641 7.25156 10.75 7.25156C10.7359 7.25156 10.7219 7.25313 10.7094 7.25781L7.70937 8.3C7.68487 8.30832 7.66356 8.32409 7.64844 8.34509C7.63331 8.3661 7.62512 8.3913 7.625 8.41719V12.3406C7.625 12.3797 7.64219 12.4156 7.67344 12.4391L10.6734 14.7859C10.6953 14.8031 10.7234 14.8125 10.75 14.8125C10.7766 14.8125 10.8047 14.8031 10.8266 14.7859L13.8266 12.4391C13.8563 12.4156 13.875 12.3797 13.875 12.3406V8.41719C13.875 8.36406 13.8406 8.31719 13.7906 8.3ZM12.9062 11.9328L10.75 13.6187L8.59375 11.9328V9.01562L10.75 8.26562L12.9062 9.01562V11.9328Z" fill="black"/>
</svg>
