<svg width="16" height="16" viewBox="0 0 16 16" fill="none" xmlns="http://www.w3.org/2000/svg">
<path d="M12 10L14 8M14 8L12 6M14 8H4.66667M9.33333 10.6667V12.4C9.33333 12.6101 9.29195 12.8182 9.21154 13.0123C9.13113 13.2064 9.01328 13.3828 8.8647 13.5314C8.71613 13.6799 8.53975 13.7978 8.34563 13.8782C8.15151 13.9586 7.94345 14 7.73333 14H3.6C3.17565 14 2.76869 13.8314 2.46863 13.5314C2.16857 13.2313 2 12.8243 2 12.4V3.6C2 3.38989 2.04139 3.18183 2.12179 2.98771C2.2022 2.79359 2.32006 2.6172 2.46863 2.46863C2.76869 2.16857 3.17565 2 3.6 2H7.73333C7.94345 2 8.15151 2.04139 8.34563 2.12179C8.53975 2.2022 8.71613 2.32006 8.8647 2.46863C9.01328 2.6172 9.13113 2.79359 9.21154 2.98771C9.29195 3.18183 9.33333 3.38989 9.33333 3.6V5.33333" stroke="black" stroke-miterlimit="10" stroke-linecap="round" stroke-linejoin="round"/>
</svg>
