<svg width="16" height="16" viewBox="0 0 16 16" fill="none" xmlns="http://www.w3.org/2000/svg">
<path d="M13.9374 12.0629H12.6874V10.8129C12.6874 10.7441 12.6311 10.6879 12.5624 10.6879H11.8124C11.7436 10.6879 11.6874 10.7441 11.6874 10.8129V12.0629H10.4374C10.3686 12.0629 10.3124 12.1191 10.3124 12.1879V12.9379C10.3124 13.0066 10.3686 13.0629 10.4374 13.0629H11.6874V14.3129C11.6874 14.3816 11.7436 14.4379 11.8124 14.4379H12.5624C12.6311 14.4379 12.6874 14.3816 12.6874 14.3129V13.0629H13.9374C14.0061 13.0629 14.0624 13.0066 14.0624 12.9379V12.1879C14.0624 12.1191 14.0061 12.0629 13.9374 12.0629ZM5.83582 7.78787C5.82176 7.65193 5.81394 7.51443 5.81394 7.37537C5.81394 7.12693 5.83738 6.88474 5.88113 6.6488C5.89207 6.59255 5.86238 6.53474 5.81082 6.5113C5.59832 6.41599 5.40301 6.28474 5.23426 6.11912C5.03541 5.92632 4.87894 5.69418 4.77483 5.43753C4.67071 5.18087 4.62124 4.90533 4.62957 4.62849C4.64363 4.12693 4.84519 3.65037 5.19676 3.29099C5.58269 2.89568 6.10144 2.68005 6.65301 2.6863C7.15144 2.69099 7.63269 2.88318 7.99676 3.2238C8.12019 3.33943 8.22644 3.46755 8.31551 3.60505C8.34676 3.65349 8.40769 3.6738 8.46082 3.65505C8.73582 3.55974 9.02644 3.49255 9.32488 3.4613C9.41238 3.45193 9.46238 3.35818 9.42332 3.28005C8.9155 2.27537 7.87801 1.58162 6.67801 1.56287C4.94676 1.5363 3.50301 2.95662 3.50301 4.68787C3.50301 5.66912 3.95457 6.54412 4.66238 7.11755C4.16551 7.34724 3.70769 7.66443 3.31082 8.0613C2.45457 8.91599 1.97019 10.0441 1.93894 11.2488C1.93853 11.2655 1.94145 11.2821 1.94755 11.2976C1.95364 11.3131 1.96278 11.3273 1.97443 11.3392C1.98608 11.3512 2 11.3606 2.01537 11.3671C2.03075 11.3736 2.04726 11.3769 2.06394 11.3769H2.94051C3.00769 11.3769 3.06394 11.3238 3.06551 11.2566C3.09519 10.3504 3.46238 9.50193 4.10769 8.85818C4.56707 8.3988 5.12957 8.08005 5.74363 7.92537C5.80301 7.90818 5.84363 7.85037 5.83582 7.78787ZM12.8749 7.37537C12.8749 5.66599 11.5014 4.27693 9.79832 4.25037C8.06707 4.2238 6.62488 5.64412 6.62488 7.37537C6.62488 8.35662 7.07801 9.23162 7.78426 9.80505C7.28223 10.0378 6.82522 10.3572 6.43426 10.7488C5.57801 11.6035 5.09363 12.7316 5.06238 13.9347C5.06196 13.9514 5.06489 13.968 5.07098 13.9835C5.07708 13.9991 5.08622 14.0132 5.09787 14.0252C5.10952 14.0371 5.12344 14.0466 5.13881 14.0531C5.15419 14.0595 5.1707 14.0629 5.18738 14.0629H6.06238C6.12957 14.0629 6.18582 14.0097 6.18738 13.9426C6.21707 13.0363 6.58426 12.1879 7.22957 11.5441C7.90301 10.8707 8.79676 10.5004 9.74988 10.5004C11.4749 10.5004 12.8749 9.10193 12.8749 7.37537ZM11.1639 8.78943C10.7858 9.16755 10.2843 9.37537 9.74988 9.37537C9.21551 9.37537 8.71394 9.16755 8.33582 8.78943C8.14713 8.60172 7.99804 8.37805 7.89739 8.13166C7.79674 7.88527 7.74658 7.62119 7.74988 7.35505C7.75457 6.84255 7.95926 6.34724 8.31707 5.98005C8.69207 5.59568 9.19363 5.38162 9.72957 5.37537C10.2593 5.37068 10.7733 5.57693 11.1514 5.94724C11.5389 6.32693 11.7514 6.83474 11.7514 7.37537C11.7499 7.90974 11.5421 8.4113 11.1639 8.78943Z" fill="white"/>
</svg>
