<svg width="12" height="12" viewBox="0 0 12 12" fill="none" xmlns="http://www.w3.org/2000/svg">
<g clip-path="url(#clip0_2044_1363)">
<mask id="path-1-inside-1_2044_1363" fill="white">
<path d="M8.15625 5.625H6.375V3.84375C6.375 3.79219 6.33281 3.75 6.28125 3.75H5.71875C5.66719 3.75 5.625 3.79219 5.625 3.84375V5.625H3.84375C3.79219 5.625 3.75 5.66719 3.75 5.71875V6.28125C3.75 6.33281 3.79219 6.375 3.84375 6.375H5.625V8.15625C5.625 8.20781 5.66719 8.25 5.71875 8.25H6.28125C6.33281 8.25 6.375 8.20781 6.375 8.15625V6.375H8.15625C8.20781 6.375 8.25 6.33281 8.25 6.28125V5.71875C8.25 5.66719 8.20781 5.625 8.15625 5.625Z"/>
<path d="M6 0.75C3.10078 0.75 0.75 3.10078 0.75 6C0.75 8.89922 3.10078 11.25 6 11.25C8.89922 11.25 11.25 8.89922 11.25 6C11.25 3.10078 8.89922 0.75 6 0.75ZM6 10.3594C3.59297 10.3594 1.64062 8.40703 1.64062 6C1.64062 3.59297 3.59297 1.64062 6 1.64062C8.40703 1.64062 10.3594 3.59297 10.3594 6C10.3594 8.40703 8.40703 10.3594 6 10.3594Z"/>
</mask>
<path d="M8.15625 5.625H6.375V3.84375C6.375 3.79219 6.33281 3.75 6.28125 3.75H5.71875C5.66719 3.75 5.625 3.79219 5.625 3.84375V5.625H3.84375C3.79219 5.625 3.75 5.66719 3.75 5.71875V6.28125C3.75 6.33281 3.79219 6.375 3.84375 6.375H5.625V8.15625C5.625 8.20781 5.66719 8.25 5.71875 8.25H6.28125C6.33281 8.25 6.375 8.20781 6.375 8.15625V6.375H8.15625C8.20781 6.375 8.25 6.33281 8.25 6.28125V5.71875C8.25 5.66719 8.20781 5.625 8.15625 5.625Z" fill="black"/>
<path d="M6 0.75C3.10078 0.75 0.75 3.10078 0.75 6C0.75 8.89922 3.10078 11.25 6 11.25C8.89922 11.25 11.25 8.89922 11.25 6C11.25 3.10078 8.89922 0.75 6 0.75ZM6 10.3594C3.59297 10.3594 1.64062 8.40703 1.64062 6C1.64062 3.59297 3.59297 1.64062 6 1.64062C8.40703 1.64062 10.3594 3.59297 10.3594 6C10.3594 8.40703 8.40703 10.3594 6 10.3594Z" fill="black"/>
<path d="M6.375 5.625H4.875V7.125H6.375V5.625ZM5.625 5.625V7.125H7.125V5.625H5.625ZM5.625 6.375H7.125V4.875H5.625V6.375ZM6.375 6.375V4.875H4.875V6.375H6.375ZM8.15625 5.625V4.125H6.375V5.625V7.125H8.15625V5.625ZM6.375 5.625H7.875V3.84375H6.375H4.875V5.625H6.375ZM6.375 3.84375H7.875C7.875 2.96376 7.16124 2.25 6.28125 2.25V3.75V5.25C5.50438 5.25 4.875 4.62061 4.875 3.84375H6.375ZM6.28125 3.75V2.25H5.71875V3.75V5.25H6.28125V3.75ZM5.71875 3.75V2.25C4.83876 2.25 4.125 2.96376 4.125 3.84375H5.625H7.125C7.125 4.62061 6.49562 5.25 5.71875 5.25V3.75ZM5.625 3.84375H4.125V5.625H5.625H7.125V3.84375H5.625ZM5.625 5.625V4.125H3.84375V5.625V7.125H5.625V5.625ZM3.84375 5.625V4.125C2.96376 4.125 2.25 4.83876 2.25 5.71875H3.75H5.25C5.25 6.49562 4.62061 7.125 3.84375 7.125V5.625ZM3.75 5.71875H2.25V6.28125H3.75H5.25V5.71875H3.75ZM3.75 6.28125H2.25C2.25 7.16124 2.96376 7.875 3.84375 7.875V6.375V4.875C4.62061 4.875 5.25 5.50438 5.25 6.28125H3.75ZM3.84375 6.375V7.875H5.625V6.375V4.875H3.84375V6.375ZM5.625 6.375H4.125V8.15625H5.625H7.125V6.375H5.625ZM5.625 8.15625H4.125C4.125 9.03624 4.83876 9.75 5.71875 9.75V8.25V6.75C6.49562 6.75 7.125 7.37939 7.125 8.15625H5.625ZM5.71875 8.25V9.75H6.28125V8.25V6.75H5.71875V8.25ZM6.28125 8.25V9.75C7.16124 9.75 7.875 9.03624 7.875 8.15625H6.375H4.875C4.875 7.37939 5.50438 6.75 6.28125 6.75V8.25ZM6.375 8.15625H7.875V6.375H6.375H4.875V8.15625H6.375ZM6.375 6.375V7.875H8.15625V6.375V4.875H6.375V6.375ZM8.15625 6.375V7.875C9.03624 7.875 9.75 7.16124 9.75 6.28125H8.25H6.75C6.75 5.50438 7.37939 4.875 8.15625 4.875V6.375ZM8.25 6.28125H9.75V5.71875H8.25H6.75V6.28125H8.25ZM8.25 5.71875H9.75C9.75 4.83876 9.03624 4.125 8.15625 4.125V5.625V7.125C7.37939 7.125 6.75 6.49562 6.75 5.71875H8.25ZM6 0.75V-0.75C2.27235 -0.75 -0.75 2.27235 -0.75 6H0.75H2.25C2.25 3.92921 3.92921 2.25 6 2.25V0.75ZM0.75 6H-0.75C-0.75 9.72765 2.27235 12.75 6 12.75V11.25V9.75C3.92921 9.75 2.25 8.07079 2.25 6H0.75ZM6 11.25V12.75C9.72765 12.75 12.75 9.72765 12.75 6H11.25H9.75C9.75 8.07079 8.07079 9.75 6 9.75V11.25ZM11.25 6H12.75C12.75 2.27235 9.72765 -0.75 6 -0.75V0.75V2.25C8.07079 2.25 9.75 3.92921 9.75 6H11.25ZM6 10.3594V8.85938C4.4214 8.85938 3.14062 7.5786 3.14062 6H1.64062H0.140625C0.140625 9.23546 2.76454 11.8594 6 11.8594V10.3594ZM1.64062 6H3.14062C3.14062 4.4214 4.4214 3.14062 6 3.14062V1.64062V0.140625C2.76454 0.140625 0.140625 2.76454 0.140625 6H1.64062ZM6 1.64062V3.14062C7.5786 3.14062 8.85938 4.4214 8.85938 6H10.3594H11.8594C11.8594 2.76454 9.23546 0.140625 6 0.140625V1.64062ZM10.3594 6H8.85938C8.85938 7.5786 7.5786 8.85938 6 8.85938V10.3594V11.8594C9.23546 11.8594 11.8594 9.23546 11.8594 6H10.3594Z" fill="white" mask="url(#path-1-inside-1_2044_1363)"/>
</g>
<defs>
<clipPath id="clip0_2044_1363">
<rect width="12" height="12" fill="white"/>
</clipPath>
</defs>
</svg>
