<svg width="14" height="14" viewBox="0 0 14 14" fill="none" xmlns="http://www.w3.org/2000/svg">
<path d="M2.33317 12.2498C2.01234 12.2498 1.73778 12.1357 1.5095 11.9074C1.28123 11.6791 1.16689 11.4044 1.1665 11.0832V4.6665C1.1665 4.34567 1.28084 4.07112 1.5095 3.84284C1.73817 3.61456 2.01273 3.50023 2.33317 3.49984H4.6665V2.33317C4.6665 2.01234 4.78084 1.73778 5.0095 1.5095C5.23817 1.28123 5.51273 1.16689 5.83317 1.1665H8.1665C8.48734 1.1665 8.76209 1.28084 8.99075 1.5095C9.21942 1.73817 9.33356 2.01273 9.33317 2.33317V3.49984H11.6665C11.9873 3.49984 12.2621 3.61417 12.4908 3.84284C12.7194 4.0715 12.8336 4.34606 12.8332 4.6665V11.0832C12.8332 11.404 12.719 11.6788 12.4908 11.9074C12.2625 12.1361 11.9877 12.2502 11.6665 12.2498H2.33317ZM5.83317 3.49984H8.1665V2.33317H5.83317V3.49984Z" fill="#003EB3"/>
</svg>
