<svg width="16" height="16" viewBox="0 0 16 16" fill="none" xmlns="http://www.w3.org/2000/svg">
<mask id="path-1-inside-1_2862_7249" fill="white">
<path d="M12.6667 12.6665H3.33333V5.33317H12.6667M10.6667 0.666504V1.99984H5.33333V0.666504H4V1.99984H3.33333C2.59333 1.99984 2 2.59317 2 3.33317V12.6665C2 13.0201 2.14048 13.3593 2.39052 13.6093C2.64057 13.8594 2.97971 13.9998 3.33333 13.9998H12.6667C13.0203 13.9998 13.3594 13.8594 13.6095 13.6093C13.8595 13.3593 14 13.0201 14 12.6665V3.33317C14 2.97955 13.8595 2.64041 13.6095 2.39036C13.3594 2.14031 13.0203 1.99984 12.6667 1.99984H12V0.666504M11.3333 7.99984H8V11.3332H11.3333V7.99984Z"/>
</mask>
<path d="M3.33333 12.6665H1.83333V14.1665H3.33333V12.6665ZM3.33333 5.33317V3.83317H1.83333V5.33317H3.33333ZM10.6667 1.99984V3.49984H12.1667V1.99984H10.6667ZM5.33333 1.99984H3.83333V3.49984H5.33333V1.99984ZM5.33333 0.666504H6.83333V-0.833496H5.33333V0.666504ZM4 0.666504V-0.833496H2.5V0.666504H4ZM4 1.99984V3.49984H5.5V1.99984H4ZM2 12.6665L0.5 12.6665L2 12.6665ZM12 1.99984H10.5V3.49984H12V1.99984ZM11.3333 7.99984H12.8333V6.49984H11.3333V7.99984ZM8 7.99984V6.49984H6.5V7.99984H8ZM8 11.3332H6.5V12.8332H8V11.3332ZM11.3333 11.3332V12.8332H12.8333V11.3332H11.3333ZM12.6667 12.6665V11.1665H3.33333V12.6665V14.1665H12.6667V12.6665ZM3.33333 12.6665H4.83333V5.33317H3.33333H1.83333V12.6665H3.33333ZM3.33333 5.33317V6.83317H12.6667V5.33317V3.83317H3.33333V5.33317ZM10.6667 0.666504H9.16667V1.99984H10.6667H12.1667V0.666504H10.6667ZM10.6667 1.99984V0.499837H5.33333V1.99984V3.49984H10.6667V1.99984ZM5.33333 1.99984H6.83333V0.666504H5.33333H3.83333V1.99984H5.33333ZM5.33333 0.666504V-0.833496H4V0.666504V2.1665H5.33333V0.666504ZM4 0.666504H2.5V1.99984H4H5.5V0.666504H4ZM4 1.99984V0.499837H3.33333V1.99984V3.49984H4V1.99984ZM3.33333 1.99984V0.499837C1.76491 0.499837 0.5 1.76474 0.5 3.33317H2H3.5C3.5 3.4216 3.42176 3.49984 3.33333 3.49984V1.99984ZM2 3.33317H0.5V12.6665H2H3.5V3.33317H2ZM2 12.6665L0.5 12.6665C0.5 13.418 0.798511 14.1386 1.32986 14.67L2.39052 13.6093L3.45118 12.5487C3.48244 12.5799 3.5 12.6223 3.5 12.6665L2 12.6665ZM2.39052 13.6093L1.32986 14.67C1.86122 15.2013 2.58189 15.4998 3.33333 15.4998V13.9998V12.4998C3.37754 12.4998 3.41993 12.5174 3.45118 12.5487L2.39052 13.6093ZM3.33333 13.9998V15.4998H12.6667V13.9998V12.4998H3.33333V13.9998ZM12.6667 13.9998V15.4998C13.4181 15.4998 14.1388 15.2013 14.6701 14.67L13.6095 13.6093L12.5488 12.5487C12.5801 12.5174 12.6225 12.4998 12.6667 12.4998V13.9998ZM13.6095 13.6093L14.6701 14.67C15.2015 14.1386 15.5 13.418 15.5 12.6665H14H12.5C12.5 12.6223 12.5176 12.5799 12.5488 12.5487L13.6095 13.6093ZM14 12.6665H15.5V3.33317H14H12.5V12.6665H14ZM14 3.33317H15.5C15.5 2.58172 15.2015 1.86105 14.6701 1.3297L13.6095 2.39036L12.5488 3.45102C12.5176 3.41977 12.5 3.37737 12.5 3.33317H14ZM13.6095 2.39036L14.6701 1.3297C14.1388 0.798348 13.4181 0.499837 12.6667 0.499837L12.6667 1.99984L12.6667 3.49984C12.6225 3.49984 12.5801 3.48228 12.5488 3.45102L13.6095 2.39036ZM12.6667 1.99984V0.499837H12V1.99984V3.49984H12.6667V1.99984ZM12 1.99984H13.5V0.666504H12H10.5V1.99984H12ZM11.3333 7.99984V6.49984H8V7.99984V9.49984H11.3333V7.99984ZM8 7.99984H6.5V11.3332H8H9.5V7.99984H8ZM8 11.3332V12.8332H11.3333V11.3332V9.83317H8V11.3332ZM11.3333 11.3332H12.8333V7.99984H11.3333H9.83333V11.3332H11.3333Z" fill="#003EB3" mask="url(#path-1-inside-1_2862_7249)"/>
</svg>
