<svg width="24" height="24" viewBox="0 0 24 24" fill="none" xmlns="http://www.w3.org/2000/svg">
<path d="M12.252 18.506C12.8849 18.4627 13.5125 18.3617 14.127 18.204C14.886 18.4322 15.687 18.4838 16.469 18.355C16.5002 18.3512 16.5316 18.3489 16.563 18.348C16.842 18.348 17.208 18.508 17.742 18.845V18.291C17.7422 18.1945 17.7683 18.0998 17.8176 18.0168C17.8668 17.9338 17.9374 17.8655 18.022 17.819C18.2547 17.6877 18.4697 17.54 18.667 17.376C19.445 16.726 19.884 15.858 19.884 14.94C19.884 14.637 19.836 14.335 19.741 14.047C19.9762 13.6151 20.1653 13.1596 20.305 12.688C20.755 13.353 20.997 14.138 21 14.94C21 16.188 20.412 17.352 19.393 18.203C19.2223 18.345 19.044 18.4757 18.858 18.595V19.893C18.858 20.339 18.336 20.596 17.968 20.33C17.6193 20.0734 17.2589 19.8332 16.888 19.61C16.7808 19.5482 16.67 19.4931 16.556 19.445C16.2464 19.4908 15.9339 19.5139 15.621 19.514C14.351 19.514 13.177 19.137 12.252 18.506ZM5.531 15.911C3.927 14.568 3 12.737 3 10.775C3 6.76701 6.832 3.56201 11.511 3.56201C16.191 3.56201 20.024 6.76601 20.024 10.775C20.024 14.784 16.191 17.987 11.511 17.987C10.9903 17.9876 10.4704 17.9474 9.956 17.867C9.736 17.918 8.854 18.435 7.584 19.35C7.124 19.682 6.472 19.362 6.472 18.803V16.59C6.14262 16.3864 5.82846 16.1591 5.532 15.91M9.987 16.502C10.0257 16.502 10.0647 16.505 10.104 16.511C10.564 16.587 11.033 16.6253 11.511 16.626C15.464 16.626 18.627 13.981 18.627 10.774C18.627 7.56801 15.464 4.92401 11.512 4.92401C7.56 4.92401 4.395 7.56801 4.395 10.774C4.395 12.324 5.135 13.784 6.441 14.877C6.77033 15.1517 7.129 15.3983 7.517 15.617C7.62225 15.6754 7.71011 15.7607 7.7716 15.8642C7.83309 15.9677 7.86601 16.0856 7.867 16.206V17.482C8.872 16.817 9.533 16.502 9.987 16.502Z" fill="#666666"/>
<path d="M8.06152 12C8.35989 12 8.64604 11.8815 8.85702 11.6705C9.068 11.4595 9.18652 11.1734 9.18652 10.875C9.18652 10.5766 9.068 10.2905 8.85702 10.0795C8.64604 9.86853 8.35989 9.75 8.06152 9.75C7.76316 9.75 7.47701 9.86853 7.26603 10.0795C7.05505 10.2905 6.93652 10.5766 6.93652 10.875C6.93652 11.1734 7.05505 11.4595 7.26603 11.6705C7.47701 11.8815 7.76316 12 8.06152 12Z" fill="#666666"/>
<path d="M11.7188 12C12.0171 12 12.3033 11.8815 12.5142 11.6705C12.7252 11.4595 12.8438 11.1734 12.8438 10.875C12.8438 10.5766 12.7252 10.2905 12.5142 10.0795C12.3033 9.86853 12.0171 9.75 11.7188 9.75C11.4204 9.75 11.1342 9.86853 10.9233 10.0795C10.7123 10.2905 10.5938 10.5766 10.5938 10.875C10.5938 11.1734 10.7123 11.4595 10.9233 11.6705C11.1342 11.8815 11.4204 12 11.7188 12Z" fill="#666666"/>
<path d="M15.375 12C15.6734 12 15.9595 11.8815 16.1705 11.6705C16.3815 11.4595 16.5 11.1734 16.5 10.875C16.5 10.5766 16.3815 10.2905 16.1705 10.0795C15.9595 9.86853 15.6734 9.75 15.375 9.75C15.0766 9.75 14.7905 9.86853 14.5795 10.0795C14.3685 10.2905 14.25 10.5766 14.25 10.875C14.25 11.1734 14.3685 11.4595 14.5795 11.6705C14.7905 11.8815 15.0766 12 15.375 12Z" fill="#666666"/>
</svg>
