<svg width="32" height="32" viewBox="0 0 32 32" fill="none" xmlns="http://www.w3.org/2000/svg">
<path d="M17.3624 0.537549C16.5937 -0.174951 15.4062 -0.174951 14.6437 0.537549L0.643689 13.5376C0.0436887 14.1001 -0.156311 14.9688 0.143689 15.7313C0.443689 16.4938 1.17494 17.0001 1.99994 17.0001H2.99994V28.0001C2.99994 30.2063 4.79369 32.0001 6.99994 32.0001H24.9999C27.2062 32.0001 28.9999 30.2063 28.9999 28.0001V17.0001H29.9999C30.8249 17.0001 31.5624 16.4938 31.8624 15.7313C32.1624 14.9688 31.9624 14.0938 31.3624 13.5376L17.3624 0.537549ZM12.4999 16.0001C12.4999 15.0718 12.8687 14.1816 13.5251 13.5252C14.1814 12.8688 15.0717 12.5001 15.9999 12.5001C16.9282 12.5001 17.8184 12.8688 18.4748 13.5252C19.1312 14.1816 19.4999 15.0718 19.4999 16.0001C19.4999 16.9283 19.1312 17.8185 18.4748 18.4749C17.8184 19.1313 16.9282 19.5001 15.9999 19.5001C15.0717 19.5001 14.1814 19.1313 13.5251 18.4749C12.8687 17.8185 12.4999 16.9283 12.4999 16.0001ZM8.99994 27.0001C8.99994 24.2376 11.2374 22.0001 13.9999 22.0001H17.9999C20.7624 22.0001 22.9999 24.2376 22.9999 27.0001C22.9999 27.5501 22.5499 28.0001 21.9999 28.0001H9.99994C9.44994 28.0001 8.99994 27.5501 8.99994 27.0001Z" fill="#0F53BA"/>
</svg>
