<svg width="36" height="36" viewBox="0 0 36 36" fill="none" xmlns="http://www.w3.org/2000/svg">
<path d="M30 9V27C30 27.7956 29.6839 28.5587 29.1213 29.1213C28.5587 29.6839 27.7956 30 27 30H9C8.20435 30 7.44129 29.6839 6.87868 29.1213C6.31607 28.5587 6 27.7956 6 27V9C6 8.20435 6.31607 7.44129 6.87868 6.87868C7.44129 6.31607 8.20435 6 9 6H27C27.7956 6 28.5587 6.31607 29.1213 6.87868C29.6839 7.44129 30 8.20435 30 9ZM27 9H9V18.57L12.285 15.285L20.13 23.13L21.63 21.63C22.0862 21.2651 22.6605 21.0803 23.2439 21.1108C23.8273 21.1412 24.3792 21.3846 24.795 21.795L27 24V9ZM19.5 14.25C19.5 13.6533 19.7371 13.081 20.159 12.659C20.581 12.2371 21.1533 12 21.75 12C22.3467 12 22.919 12.2371 23.341 12.659C23.7629 13.081 24 13.6533 24 14.25C24 14.8467 23.7629 15.419 23.341 15.841C22.919 16.2629 22.3467 16.5 21.75 16.5C21.1533 16.5 20.581 16.2629 20.159 15.841C19.7371 15.419 19.5 14.8467 19.5 14.25Z" fill="black"/>
</svg>
