<svg width="16" height="16" viewBox="0 0 16 16" fill="none" xmlns="http://www.w3.org/2000/svg">
<path d="M8.00008 13.3334C7.26368 13.3334 6.66675 12.7365 6.66675 12.0001C6.66675 11.2637 7.26368 10.6667 8.00008 10.6667C8.73648 10.6667 9.33341 11.2637 9.33341 12.0001C9.33341 12.7365 8.73648 13.3334 8.00008 13.3334ZM8.00008 9.33342C7.26368 9.33342 6.66675 8.73648 6.66675 8.00008C6.66675 7.26368 7.26368 6.66675 8.00008 6.66675C8.73648 6.66675 9.33341 7.26368 9.33341 8.00008C9.33341 8.35368 9.19295 8.69281 8.94288 8.94288C8.69281 9.19295 8.35368 9.33342 8.00008 9.33342ZM8.00008 5.33341C7.26368 5.33341 6.66675 4.73646 6.66675 4.00008C6.66675 3.2637 7.26368 2.66675 8.00008 2.66675C8.73648 2.66675 9.33341 3.2637 9.33341 4.00008C9.33341 4.3537 9.19295 4.69284 8.94288 4.94289C8.69281 5.19294 8.35368 5.33341 8.00008 5.33341Z" fill="#737373"/>
</svg>
