<svg width="18" height="18" viewBox="0 0 18 18" fill="none" xmlns="http://www.w3.org/2000/svg">
<path d="M15.6094 13.9219H3.51562V2.95312C3.51562 2.87578 3.45234 2.8125 3.375 2.8125H2.39062C2.31328 2.8125 2.25 2.87578 2.25 2.95312V15.0469C2.25 15.1242 2.31328 15.1875 2.39062 15.1875H15.6094C15.6867 15.1875 15.75 15.1242 15.75 15.0469V14.0625C15.75 13.9852 15.6867 13.9219 15.6094 13.9219ZM5.37539 11.2096C5.42988 11.2641 5.51777 11.2641 5.57402 11.2096L8.00508 8.79082L10.248 11.0479C10.3025 11.1023 10.3922 11.1023 10.4467 11.0479L15.2877 6.20859C15.3422 6.1541 15.3422 6.06445 15.2877 6.00996L14.5916 5.31387C14.5652 5.2877 14.5295 5.27302 14.4923 5.27302C14.4551 5.27302 14.4194 5.2877 14.393 5.31387L10.35 9.35508L8.11055 7.10156C8.08412 7.07539 8.04843 7.06071 8.01123 7.06071C7.97404 7.06071 7.93834 7.07539 7.91191 7.10156L4.68105 10.3131C4.65488 10.3395 4.6402 10.3752 4.6402 10.4124C4.6402 10.4496 4.65488 10.4853 4.68105 10.5117L5.37539 11.2096Z" fill="black"/>
</svg>
