<svg width="24" height="24" viewBox="0 0 24 24" fill="none" xmlns="http://www.w3.org/2000/svg">
<path d="M20.2496 21.15C19.8746 19.05 18.3746 17.325 16.4246 16.8C15.4496 16.575 14.7746 15.675 14.6996 14.625C15.5996 13.875 16.2746 12.675 16.4246 11.325C16.4246 11.1 16.4246 10.875 16.2746 10.725C16.1246 10.575 15.8996 10.5 15.6746 10.5C14.3246 10.5 13.1246 9.75 12.4496 8.625C12.2996 8.4 12.0746 8.25 11.7746 8.25H8.24961C7.79961 8.25 7.49961 8.55 7.49961 9V10.5C7.49961 12.15 8.17461 13.65 9.29961 14.625C9.14961 15.675 8.47461 16.575 7.42461 16.875C5.54961 17.4 4.12461 19.05 3.67461 21.15C3.59961 21.525 3.67461 21.825 3.89961 22.125C4.19961 22.35 4.49961 22.5 4.87461 22.5H19.1996C19.4996 22.5 19.7996 22.35 20.0246 22.125C20.1746 21.825 20.3246 21.525 20.2496 21.15Z" fill="#0F53BA"/>
<path d="M18 8.25H17.85V8.1C17.85 6.75 17.4 5.55 16.65 4.5L16.125 6.375C16.05 6.675 15.75 6.9 15.375 6.9C15.3 6.9 15.225 6.9 15.15 6.9C14.775 6.75 14.55 6.375 14.625 6L15.525 2.925C15.525 2.7 15.375 2.475 15.15 2.325C13.2 1.35 10.875 1.35 8.925 2.325C8.7 2.475 8.55 2.7 8.55 2.925L9.45 6C9.6 6.375 9.3 6.825 8.925 6.9C8.85 6.9 8.775 6.9 8.7 6.9C8.4 6.9 8.1 6.675 7.95 6.375L7.425 4.5C6.675 5.55 6.225 6.75 6.225 8.1V8.25H6C5.55 8.25 5.25 8.55 5.25 9C5.25 9.45 5.55 9.75 6 9.75H18C18.45 9.75 18.75 9.45 18.75 9C18.75 8.55 18.45 8.25 18 8.25Z" fill="#0F53BA"/>
</svg>
