<svg width="24" height="24" viewBox="0 0 24 24" fill="none" xmlns="http://www.w3.org/2000/svg">
<path d="M17.9825 18.7249C17.2836 17.7999 16.3796 17.0498 15.3416 16.5335C14.3035 16.0173 13.1598 15.7491 12.0005 15.7499C10.8412 15.7491 9.69744 16.0173 8.6594 16.5335C7.62136 17.0498 6.71732 17.7999 6.01848 18.7249M17.9825 18.7249C19.346 17.5121 20.3086 15.9135 20.7427 14.141C21.1767 12.3686 21.0617 10.506 20.4129 8.80043C19.7642 7.09482 18.6122 5.62673 17.1099 4.59085C15.6075 3.55497 13.8258 3.00024 12.001 3.00024C10.1761 3.00024 8.39441 3.55497 6.89208 4.59085C5.38975 5.62673 4.23781 7.09482 3.58901 8.80043C2.94022 10.506 2.82523 12.3686 3.2593 14.141C3.69336 15.9135 4.65498 17.5121 6.01848 18.7249M17.9825 18.7249C16.3363 20.1928 14.206 21.0027 12.0005 20.9999C9.79458 21.003 7.66491 20.193 6.01848 18.7249M15.0005 9.74995C15.0005 10.5456 14.6844 11.3087 14.1218 11.8713C13.5592 12.4339 12.7961 12.7499 12.0005 12.7499C11.2048 12.7499 10.4418 12.4339 9.87916 11.8713C9.31655 11.3087 9.00048 10.5456 9.00048 9.74995C9.00048 8.9543 9.31655 8.19124 9.87916 7.62863C10.4418 7.06602 11.2048 6.74995 12.0005 6.74995C12.7961 6.74995 13.5592 7.06602 14.1218 7.62863C14.6844 8.19124 15.0005 8.9543 15.0005 9.74995Z" stroke="#666666" stroke-width="1.5" stroke-linecap="round" stroke-linejoin="round"/>
</svg>
